<svg xmlns="http://www.w3.org/2000/svg" width="55.09" height="54.49" viewBox="0 0 55.09 54.49"><defs><style>.a{fill:#272324;}.b{fill:#0183bf;}.c{fill:#51b1df;}.d{fill:#fff;}.e{fill:#0099d4;}</style></defs><title>logo-small</title><path class="a" d="M138,85.43s0,.14,0,.16c0,.78,0,1.57,0,2.35l-.06,4.78-.06,4.76c0,1.59,0,3.18-.07,4.77s-.05,3.18-.07,4.77l-.06,4.78c0,1.6-.05,3.19-.07,4.79s0,3.18-.07,4.78l0,2.38a.47.47,0,0,1-.13.36c-.13.12-.28.22-.42.33l-1,.73-3.77,2.91L128.39,131l-3.77,2.91-1.89,1.45-1,.74a2.19,2.19,0,0,1-.44.31.74.74,0,0,1-.44.06l-2.35-.41-2.36-.41-4.72-.82-4.71-.81-4.71-.8-4.7-.81-4.69-.82-4.7-.8-2.26-.38-1.13-.2-.54-.09-.28-.05a1.09,1.09,0,0,1-.24-.07c0-1.59-.06-3.17-.08-4.76l-.06-4.78c0-1.6-.06-3.18-.08-4.78s-.05-3.17-.08-4.75-.06-3.18-.08-4.77L83,101.39c0-1.59-.05-3.17-.07-4.76s0-3.18-.07-4.77c0-.77,0-1.55,0-2.32v-.36s0,0,.05-.05l.15,0,.54-.2,1.1-.4,4.49-1.62,4.5-1.64,4.49-1.63,2.24-.81,1.11-.4.58-.22a3.35,3.35,0,0,1,.54-.16,1.88,1.88,0,0,1,.53,0l.6.06,1.19.12,2.38.23,4.74.47,4.75.47,4.73.46,4.75.47,4.76.47,4.7.46,1.14.11.59.06.29,0S138,85.41,138,85.43Zm-.85,1.06a.86.86,0,0,0,0-.16s0-.09,0-.13c-.43,0-.85-.11-1.28-.15l-5.31-.51-.57-.06-2-.2-4.6-.45L121,84.6l-1.19-.11-.85-.09L114.45,84l-.36,0-2.3-.23-2.65-.26-.67-.06L104.92,83l-.55-.06-.55,0c-.19,0-.39-.06-.6-.07h-.52l-.13,0-.1,0-.53.2-.63.23-2.52.91-5,1.83-5.06,1.84-1.25.45-1.26.46-.84.31-.42.15-.64.23-.27.1h0l-.06,0-.08,0-.08.05h0s0,.1,0,.12V90h0v.09c0,1.11,0,2.22,0,3.33v0l0,1.43,0,2.87c0,.15,0,.3,0,.46l0,1.3.06,3.3c0,.86,0,1.72,0,2.58v1l0,2.31c0,1.44,0,2.87.07,4.31,0,1.27,0,2.55.07,3.82,0,.36,0,.73,0,1.09,0,.91,0,1.82,0,2.72,0,.26,0,.52,0,.77a1.21,1.21,0,0,0,0,.19c0,.31,0,.63,0,1,0,1.34,0,2.69,0,4h0c0,.47,0,.93,0,1.4v.06c0,.07,0,.15,0,.23a1.48,1.48,0,0,0,0,.21c0,.08,0,.15,0,.23s0,.15,0,.23a.89.89,0,0,0,0,.23h0v0h0a.66.66,0,0,0,.15,0h0l.17,0,.75.13,1.59.28,3.76.64,3.78.65,1.23.22,2.55.44.45.07,2.64.45.67.12.91.16L106,133l3.77.65,3.76.65,1.74.3,2,.36,1.37.23.15,0,.38.07c.46.08.93.14,1.4.21l.34.05.11,0h0a.31.31,0,0,0,.1-.05l.11-.07,0,0,.14-.1.13-.1.28-.22.24-.19.67-.51,3.28-2.53.37-.28.12-.1,3.53-2.72.91-.7,2.23-1.71.92-.71,1.43-1.1.59-.45c.12-.09.25-.18.36-.28h0a.3.3,0,0,0,.08-.08.62.62,0,0,0,.07-.19,4,4,0,0,0,0-.49h0v-.4c0-.26,0-.53,0-.79s0-.42,0-.63l0-1.35v-.33c0-1,0-1.92,0-2.87,0-.33,0-.66,0-1l0-1.4c0-1.87.05-3.74.07-5.61s.06-3.74.08-5.61,0-3.73.08-5.6.05-3.74.08-5.61c0-.39,0-.77,0-1.16,0-.74,0-1.48,0-2.22v-.12c0-.2,0-.39,0-.59V86.49Z" transform="translate(-82.88 -81.98)"/><path class="b" d="M137.1,86.33a.86.86,0,0,1,0,.16v-.06a.6.6,0,0,0-.06-.23S137.09,86.28,137.1,86.33Z" transform="translate(-82.88 -81.98)"/><path class="b" d="M137.11,86.43v1.24c0,.2,0,.39,0,.59V89c0,.93,0,1.87,0,2.8,0,1.87-.05,3.74-.08,5.61s0,3.74-.08,5.6-.05,3.74-.08,5.61,0,3.74-.07,5.61l0,1.4c0,.32,0,.65,0,1,0,1,0,1.91,0,2.87l0,1.68c0,.21,0,.42,0,.63s0,.53,0,.79v.4h0v.33a.67.67,0,0,1-.07.35l-.08.09,0,0-.32.25-.16.12-.43.33-.13.1-1.3,1-.92.71L130.93,128l-.91.7-3.65,2.82-.37.28-3.28,2.53-.67.51-.24.19-.41.32-.14.1,0,0-.21.12h0v-3c0-.93,0-1.87,0-2.8,0-.49,0-1,0-1.45v-3.86c0-.15,0-.29,0-.44v-.09c0-1,0-1.91,0-2.86s0-1.7,0-2.55v-1.94c0-.34,0-.68,0-1v-.31c0-.64,0-1.28,0-1.91v-3.17c0-.24,0-.48,0-.72v-.73c0-.11,0-.23,0-.35,0-.76,0-1.52,0-2.28v0c0-.16,0-.32,0-.48V105c0-.29,0-.59,0-.89s0-.33,0-.5V94.93c0-.25,0-.49,0-.73v-.4h0s0,0,0,0l.12-.06.15-.07.28-.14.62-.29.62-.29,2.38-1.13,1.92-.91,3.32-1.58,1.6-.76.42-.2.61-.29.91-.43.52-.25,1.22-.58.61-.29.22-.11.07,0,0,0,.13-.07.12-.08h0A.6.6,0,0,1,137.11,86.43ZM135,94.11c0-.17,0-.33,0-.5l-4.35,2.06-4.32,2-2.44,1.16v2.85c0,1,0,1.9,0,2.86s0,1.9,0,2.85,0,1.9,0,2.86v2.85c0,.95,0,1.91,0,2.86s0,1.9,0,2.86,0,1.9,0,2.86,0,1.91,0,2.86v3.57c.44-.31.86-.65,1.28-1l1.43-1.1,2.85-2.2,2.85-2.19,1.42-1.09.72-.55a1.41,1.41,0,0,0,.29-.25.46.46,0,0,0,.08-.28c0-.59,0-1.19,0-1.78s0-1.15,0-1.72v-.44l-3.08,2.22L128.59,120l-1.75,1.26c0-1.36,0-2.73,0-4.09,0-.71,0-1.41,0-2.11V114a1.24,1.24,0,0,1,.12-.76.8.8,0,0,1,.23-.22l.41-.26.9-.57,1.78-1.13,3.54-2.25c.22-.14.48-.26.52-.54a3.23,3.23,0,0,0,0-.44c0-.17,0-.34,0-.52,0-.67,0-1.34,0-2v-.51l-2.92,1.74-2.9,1.73-1.63,1v-7a1,1,0,0,1,0-.24s0,0,0,0l.05,0,.13-.07.44-.23,3.58-1.86,3.54-1.85.1,0,.06,0s0,0,0,0a.34.34,0,0,0,0-.1v-.14c0-.16,0-.33,0-.49,0-.32,0-.65,0-1Z" transform="translate(-82.88 -81.98)"/><path class="b" d="M137.11,87.67v0Z" transform="translate(-82.88 -81.98)"/><path class="c" d="M137.05,86.2h0l-.12.08-.13.07,0,0-.07,0-.22.11-.61.29-1.22.58-.52.25-1.52.72-.42.2-1.6.76-3.32,1.58-1.92.91L123,92.93l-.62.29-.62.29-.28.14-.15.07,0,0-.08,0h-.11l-.11,0h-.15l-.35,0-.63-.08h0c-.75-.09-1.5-.16-2.25-.23h-.08l-.34,0-.33,0-.15,0-.19,0-1.08-.13-.25,0-.25,0h0l-.2,0h-.19l-2-.19-1.73-.2-.13,0-.21,0-.73-.07h-.1c-.6,0-1.19-.12-1.78-.19l-.94-.11-1-.08-.63-.07h0c-.5-.06-1-.13-1.5-.18h-.06c-.35,0-.7-.06-1-.09l-.33,0-.25,0-.21,0c-.52-.06-1-.14-1.54-.19l-.21,0h0l-1.34-.14-.34,0-.45,0-.89-.08-.33,0-.66-.06h0l-.34,0-.33,0-.14,0-.59-.07-.94-.09-.24,0-.43,0c-.72,0-1.44-.14-2.16-.23l-.52-.07-.51,0L89,90.34h-.15l-.34,0h0l-1.12-.12-.23,0-.23,0L86.37,90l-1.11-.11-.24,0-.64-.07-.33,0h0l-.18,0h0a.27.27,0,0,0-.09,0l.08-.05.08,0,.06,0h0l.23-.08,0,0,.64-.23.42-.15,2.1-.77,1.25-.45,5.06-1.84,5-1.83,2.52-.91.63-.23.23-.08.3-.12.1,0,.13,0h.52c.19,0,.37,0,.55.06h0l.55,0,4.1.41.67.06,2.65.26,2.66.26,4.49.44,2,.2,2.31.23,1.85.18,4.75.47.57.06,2,.19C134,85.88,135.52,86,137.05,86.2Zm-7.75.38s0-.06,0-.07h-.08l-.18,0-.37,0-.71-.07-1.41-.15-.71-.06a1.08,1.08,0,0,0-.31,0,1.94,1.94,0,0,0-.3.13l-1.3.58-2.57,1.17-2.6,1.18-1.29.58a1.11,1.11,0,0,1-.31.09,1.94,1.94,0,0,1-.34,0l-.71-.07c-.94-.1-1.88-.22-2.82-.31s-1.89-.16-2.82-.3l-.17,0h-.08v0s0,0,0,0l.08,0,.09,0,.16-.07.64-.27,1.27-.53L115,87.08,117.6,86l.65-.27-.51-.08-.71,0-.69-.06-.67-.09a3.29,3.29,0,0,0-1.25.12,11.76,11.76,0,0,0-1.28.51l-2.65,1.08-2.64,1.06c-.41.16-.82.36-1.25.48a2.26,2.26,0,0,1-.63.07c-.23,0-.45-.06-.68-.09l-1.4-.13-1.42-.15L101,88.24l-.7-.08-.16,0h-.08s0,0,0-.06,0,0,0,0l.08,0,.17-.06,2.69-1,2.7-1,2.69-1,.66-.25a4.52,4.52,0,0,0-.82-.13l-.88-.09-1.73-.18a2,2,0,0,0-.8.13l-.81.3-1.64.6-3.31,1.2-3.31,1.19-1.66.61c-.55.2-1.1.38-1.64.6l-.39.15c1.22.21,2.46.31,3.7.44s2.51.26,3.76.4l3.77.4,3.75.4,3.76.4,3.75.39,1.88.21.94.1.45.05a1.48,1.48,0,0,0,.42,0,2,2,0,0,0,.4-.16l.41-.2.87-.4,1.72-.81,3.41-1.62c1.14-.54,2.28-1.07,3.41-1.62Z" transform="translate(-82.88 -81.98)"/><path class="c" d="M137,86.2l-.12.08Z" transform="translate(-82.88 -81.98)"/><path class="c" d="M136.69,86.4l.07,0Z" transform="translate(-82.88 -81.98)"/><path class="b" d="M136.67,119.44v.33l0,1.35Z" transform="translate(-82.88 -81.98)"/><path class="b" d="M136.62,122.57v0Z" transform="translate(-82.88 -81.98)"/><path class="b" d="M136.46,123.71l.08-.09a.3.3,0,0,1-.08.08Z" transform="translate(-82.88 -81.98)"/><path class="b" d="M136.42,123.74l0,0c-.11.1-.24.19-.36.28Z" transform="translate(-82.88 -81.98)"/><path class="c" d="M135.77,86.05c.43,0,.85.1,1.28.15-1.53-.18-3.06-.32-4.58-.47l-2-.19Z" transform="translate(-82.88 -81.98)"/><path class="d" d="M135,93.61c0,.17,0,.33,0,.5l0,2c0,.32,0,.65,0,1,0,.16,0,.33,0,.49v.14a.34.34,0,0,1,0,.1s0,0,0,0l-.06,0-.1,0-3.54,1.85-3.58,1.86-.44.23-.13.07-.05,0s0,0,0,0a1,1,0,0,0,0,.24v7l1.63-1,2.9-1.73,2.92-1.74v.51c0,.68,0,1.35,0,2,0,.18,0,.35,0,.52a3.23,3.23,0,0,1,0,.44c0,.28-.3.4-.52.54l-3.54,2.25-1.78,1.13-.9.57-.41.26a.8.8,0,0,0-.23.22,1.24,1.24,0,0,0-.12.76v1.06c0,.7,0,1.4,0,2.11,0,1.36,0,2.73,0,4.09l1.75-1.26,3.07-2.22,3.08-2.22V116c0,.57,0,1.15,0,1.72s0,1.19,0,1.78a.46.46,0,0,1-.08.28,1.41,1.41,0,0,1-.29.25l-.72.55-1.42,1.09-2.85,2.19-2.85,2.2-1.43,1.1c-.42.32-.84.66-1.28,1v-3.57c0-1,0-1.91,0-2.86s0-1.91,0-2.86,0-1.91,0-2.86,0-1.91,0-2.86V110.3c0-1,0-1.91,0-2.86s0-1.9,0-2.85,0-1.91,0-2.86V98.88l2.44-1.16,4.32-2Z" transform="translate(-82.88 -81.98)"/><path class="b" d="M133.16,126.25,130.93,128Z" transform="translate(-82.88 -81.98)"/><path class="c" d="M130.58,89.31l1.6-.76Z" transform="translate(-82.88 -81.98)"/><path class="b" d="M130,128.66l-3.53,2.72-.12.1Z" transform="translate(-82.88 -81.98)"/><path class="d" d="M129.27,86.51s0,.06,0,.07l-.82.4c-1.13.55-2.27,1.08-3.41,1.62l-3.41,1.62-1.72.81-.87.4-.41.2a2,2,0,0,1-.4.16,1.48,1.48,0,0,1-.42,0l-.45-.05-.94-.1-1.88-.21L110.82,91l-3.76-.4-3.75-.4-3.77-.4c-1.25-.14-2.5-.28-3.76-.4s-2.48-.23-3.7-.44l.39-.15c.54-.22,1.09-.4,1.64-.6l1.66-.61,3.31-1.19,3.31-1.2,1.64-.6.81-.3a2,2,0,0,1,.8-.13l1.73.18.88.09a4.52,4.52,0,0,1,.82.13l-.66.25-2.69,1-2.7,1-2.69,1-.17.06-.08,0s0,0,0,0,0,.06,0,.06h.08l.16,0,.7.08,1.43.15,1.42.15,1.4.13c.23,0,.45.08.68.09a2.26,2.26,0,0,0,.63-.07c.43-.12.84-.32,1.25-.48l2.64-1.06,2.65-1.08a11.76,11.76,0,0,1,1.28-.51,3.29,3.29,0,0,1,1.25-.12l.67.09.69.06.71,0,.51.08-.65.27L115,87.08l-2.58,1.09-1.27.53-.64.27-.16.07-.09,0-.08,0s0,0,0,0v0h.08l.17,0c.93.14,1.88.2,2.82.3s1.88.21,2.82.31l.71.07a1.94,1.94,0,0,0,.34,0,1.11,1.11,0,0,0,.31-.09l1.29-.58,2.6-1.18,2.57-1.17,1.3-.58a1.94,1.94,0,0,1,.3-.13,1.08,1.08,0,0,1,.31,0l.71.06,1.41.15.71.07.37,0,.18,0Z" transform="translate(-82.88 -81.98)"/><path class="b" d="M121.81,135l-.28.22-.13.1Z" transform="translate(-82.88 -81.98)"/><path class="c" d="M121.26,93.74l0,0-.12.06h0Z" transform="translate(-82.88 -81.98)"/><path class="e" d="M121.14,93.8h0v.4c0,.24,0,.48,0,.73v8.39c0,.27,0,.53,0,.8s0,.6,0,.89v.55c0,.16,0,.32,0,.48v0c0,.15,0,.3,0,.45,0,.61,0,1.22,0,1.83,0,.12,0,.24,0,.35v.73c0,.24,0,.48,0,.72v3.17c0,.63,0,1.27,0,1.91v.31c0,.74,0,1.48,0,2.22v.74c0,.64,0,1.27,0,1.9,0,1.17,0,2.34-.06,3.51v.31a1.62,1.62,0,0,1,0,.22v3.86c0,1.19,0,2.38,0,3.56v3.69h0l-.11,0-.34-.05-1.78-.28-1.52-.25-2-.36-1.13-.19-4.37-.76L106,133l-1-.16-1.89-.32-.91-.16-.67-.12-1.07-.18-1.57-.27-.45-.07-2.55-.44-1.23-.22-3.78-.65-3.76-.64-1.59-.28-.28-.05-.47-.08-.17,0h0l-.09,0h-.09v0h0V129c0-.08,0-.15,0-.23s0-.15,0-.23a1.69,1.69,0,0,1,0-.23c0-.07,0-.14,0-.21v-.06c0-.29,0-.58,0-.87v-.53h0v-.23c0-.63,0-1.26,0-1.9,0-1,0-1.91,0-2.86a1.21,1.21,0,0,1,0-.19L84.17,118c0-.36,0-.73,0-1.09,0-1.27,0-2.55-.07-3.82L84,109.25c0-.93,0-1.86,0-2.79v-.25l0-2.07,0-1.29c0-.41,0-.83,0-1.25l-.06-3.35c0-.16,0-.31,0-.46l0-2.87c0-.32,0-.64,0-1v-.51c0-1,0-2.11,0-3.16V90h0v-.15s0,0,0-.07h.12l.18,0h0l.33,0,.64.07.24,0,1.64.18.23,0,.23,0,.32,0,.8.08h0l.34,0h0c.33,0,.66,0,1,.09s.69.07,1,.12c.63.08,1.26.16,1.89.21l.7.06.24,0,1.53.16.14,0,.33,0,.34,0h0l.47.05h.19l.33,0,.89.08.46,0,.33,0,1.34.14h0l1,.11.77.1.21,0h.11l.14,0h.09l.24,0,1,.09.35,0,1.21.14h0l1.12.11c.9.07,1.79.21,2.68.29l.5,0h.1l.94.09.13,0,1,.12.72.08,1,.1,1.17.1h0l.2,0h0l.25,0,.25,0,1.08.13.19,0,.15,0,.33,0h.08l.26,0h.08l2.25.23h0l1,.13h0l.27,0h0Zm-5.7,30.34v-.08s0,0,0,0h0l-.19,0-.38-.06-.76-.13-3.05-.49-3-.49-3-.49-3-.49-3-.49-1.53-.25-.39-.06h-.08s0-.06,0-.09v-1l0-3.06,0-3.06v-.75l3.45.49,3.45.49,3.43.49,3.43.49,3.44.49.43.06v-4s0-.06,0-.08,0,0-.08,0l-1.42-.19-2.84-.38-2.84-.38-2.83-.38-2.84-.38-2.84-.38-1.42-.19-.36,0a.47.47,0,0,1-.17,0s0,0,0,0v-.84l0-2.83,0-2.84c0-.23,0-.46,0-.7l3.68.43,3.65.43,3.65.42,3.67.43,3.66.43.45,0V99.44s0,0-.06,0h-.1l-.37,0-.76-.08-3-.32-3-.32-3-.32-3-.32-3-.32-3-.32-3-.31-3-.32-.74-.08c0,1.72,0,3.43.06,5.15s.06,3.5.09,5.26,0,3.49.08,5.24l.09,5.27c0,1.74,0,3.49.06,5.23,0,.43,0,.85,0,1.27,0,.06,0,.11,0,.17v.1h0l.33.06.64.11,2.6.45,5.2.89,5.17.89,5.2.9,5.19.89,1.26.22v-4.6Z" transform="translate(-82.88 -81.98)"/><path class="b" d="M121.14,93.83v0Z" transform="translate(-82.88 -81.98)"/><path class="b" d="M121.13,100.73v0Z" transform="translate(-82.88 -81.98)"/><path class="b" d="M121.13,95.8v0Z" transform="translate(-82.88 -81.98)"/><path class="c" d="M121.13,93.78h0l-.27,0H121l.11,0Z" transform="translate(-82.88 -81.98)"/><path class="b" d="M121.09,106.53c0-.15,0-.3,0-.45,0,.76,0,1.52,0,2.28C121.07,107.75,121.08,107.14,121.09,106.53Z" transform="translate(-82.88 -81.98)"/><path class="b" d="M121.07,116.57v1.2c0-.74,0-1.48,0-2.22C121.06,115.89,121.07,116.23,121.07,116.57Z" transform="translate(-82.88 -81.98)"/><path class="b" d="M121.05,110.16v0Z" transform="translate(-82.88 -81.98)"/><polygon class="b" points="38.14 53.58 38.13 53.59 38.13 53.58 38.14 53.58"/><path class="e" d="M121,135.56h0Z" transform="translate(-82.88 -81.98)"/><path class="b" d="M121,128v0Z" transform="translate(-82.88 -81.98)"/><path class="c" d="M121,84.6l-2-.2.85.09Z" transform="translate(-82.88 -81.98)"/><path class="e" d="M120.55,135.5c-.47-.07-.94-.13-1.4-.21l-.38-.07Z" transform="translate(-82.88 -81.98)"/><path class="c" d="M117.54,93.37c.75.07,1.5.14,2.25.23Z" transform="translate(-82.88 -81.98)"/><path class="d" d="M115.44,124.06v4.68l-1.26-.22-5.19-.89-5.2-.9-5.17-.89-5.2-.89-2.6-.45-.64-.11-.33-.06h0v-.1c0-.06,0-.11,0-.17,0-.42,0-.84,0-1.27,0-1.74,0-3.49-.06-5.23l-.09-5.27c0-1.75,0-3.49-.08-5.24s-.07-3.51-.09-5.26-.06-3.43-.06-5.15l.74.08,3,.32,3,.31,3,.32,3,.32,3,.32,3,.32,3,.32,3,.32.76.08.37,0h.1s.06,0,.06,0v4.66l-.45,0-3.66-.43-3.67-.43-3.65-.42-3.65-.43-3.68-.43c0,.24,0,.47,0,.7l0,2.84,0,2.83v.84s0,0,0,0a.47.47,0,0,0,.17,0l.36,0,1.42.19,2.84.38,2.84.38,2.83.38,2.84.38,2.84.38,1.42.19s.07,0,.08,0,0,.06,0,.08v4l-.43-.06-3.44-.49-3.43-.49-3.43-.49-3.45-.49-3.45-.49v.75l0,3.06,0,3.06v1s0,.07,0,.09h.08l.39.06,1.53.25,3,.49,3,.49,3,.49,3,.49,3.05.49.76.13.38.06.19,0h0S115.43,124,115.44,124.06Z" transform="translate(-82.88 -81.98)"/><path class="e" d="M115.22,134.61l-1.74-.3-3.76-.65,4.37.76Z" transform="translate(-82.88 -81.98)"/><path class="c" d="M115.12,93.11l-.25,0Z" transform="translate(-82.88 -81.98)"/><path class="c" d="M112.49,92.85l-.72-.08-1-.12Z" transform="translate(-82.88 -81.98)"/><path class="c" d="M109.59,92.53l-.5,0c-.89-.08-1.78-.22-2.68-.29l-1.12-.11.63.07,1,.08.94.11C108.4,92.41,109,92.48,109.59,92.53Z" transform="translate(-82.88 -81.98)"/><path class="e" d="M106,133l-2.86-.48,1.89.32Z" transform="translate(-82.88 -81.98)"/><path class="c" d="M103.82,82.92h0c-.18,0-.36,0-.55-.06C103.43,82.86,103.63,82.9,103.82,82.92Z" transform="translate(-82.88 -81.98)"/><path class="c" d="M102.64,91.8c.35,0,.7,0,1,.09Z" transform="translate(-82.88 -81.98)"/><path class="c" d="M102.75,82.86h0Z" transform="translate(-82.88 -81.98)"/><path class="c" d="M102.64,91.8l-.24,0h-.09Z" transform="translate(-82.88 -81.98)"/><path class="c" d="M102.47,82.93l-.3.12-.23.08Z" transform="translate(-82.88 -81.98)"/><path class="e" d="M100.44,132.07l1.07.18-2.64-.45Z" transform="translate(-82.88 -81.98)"/><path class="c" d="M101.85,91.72l-.77-.1-1-.11.21,0C100.82,91.58,101.33,91.66,101.85,91.72Z" transform="translate(-82.88 -81.98)"/><path class="c" d="M94.65,90.93l.59.07-1.53-.16Z" transform="translate(-82.88 -81.98)"/><path class="c" d="M89.85,90.42c-.33,0-.66-.06-1-.09H89Z" transform="translate(-82.88 -81.98)"/><path class="c" d="M88.48,90.29l-.8-.08-.32,0Z" transform="translate(-82.88 -81.98)"/><path class="c" d="M87.44,88.39l-2.1.77.84-.31Z" transform="translate(-82.88 -81.98)"/><path class="e" d="M84.37,129.29h0Z" transform="translate(-82.88 -81.98)"/><path class="e" d="M84.37,129.25h0a.89.89,0,0,1,0-.23v.22Z" transform="translate(-82.88 -81.98)"/><path class="e" d="M84.3,127.2c0,.29,0,.58,0,.87,0-.47,0-.93,0-1.4Z" transform="translate(-82.88 -81.98)"/><path class="c" d="M84.28,89.54l0,0-.23.08Z" transform="translate(-82.88 -81.98)"/><path class="e" d="M84.23,121.48c0-.25,0-.51,0-.77,0-.9,0-1.81,0-2.72Z" transform="translate(-82.88 -81.98)"/><path class="c" d="M84,89.65h0Z" transform="translate(-82.88 -81.98)"/><path class="e" d="M84,106.21v-.78c0-.86,0-1.72,0-2.58l0,1.29Z" transform="translate(-82.88 -81.98)"/><path class="c" d="M84,89.66l-.06,0Z" transform="translate(-82.88 -81.98)"/><path class="c" d="M83.91,89.69l-.08,0Z" transform="translate(-82.88 -81.98)"/><path class="c" d="M83.84,89.79h-.09A.27.27,0,0,1,83.84,89.79Z" transform="translate(-82.88 -81.98)"/><path class="e" d="M83.72,90.3c0,1,0,2.11,0,3.16,0-1.11,0-2.22,0-3.33v.17Z" transform="translate(-82.88 -81.98)"/><path class="c" d="M83.74,89.79h0Z" transform="translate(-82.88 -81.98)"/><path class="e" d="M83.74,89.79h0Z" transform="translate(-82.88 -81.98)"/><path class="e" d="M83.73,89.8h0s0,0,0,.07v0S83.72,89.81,83.73,89.8Z" transform="translate(-82.88 -81.98)"/></svg>