<svg xmlns="http://www.w3.org/2000/svg" width="220.35" height="217.95" viewBox="0 0 220.35 217.95"><defs><style>.b{fill:#0183bf}.c{fill:#51b1df}.d{fill:#fff}.e{fill:#0099d4}</style></defs><path d="M220.32 13.75a2.36 2.36 0 010 .65c0 3.14 0 6.28-.08 9.41q-.12 9.56-.25 19.1t-.24 19.1q-.12 9.54-.27 19.07t-.26 19.07l-.27 19.13-.27 19.15q-.12 9.56-.27 19.11c0 3.18-.08 6.37-.11 9.55a1.92 1.92 0 01-.54 1.42 18.08 18.08 0 01-1.68 1.32l-3.83 2.92-15.09 11.63-15.11 11.64-15.1 11.64-7.55 5.82-3.81 3a10.44 10.44 0 01-1.76 1.26 2.81 2.81 0 01-1.74.21c-3.14-.5-6.27-1.09-9.41-1.64l-9.46-1.64-18.88-3.27-18.84-3.22-18.84-3.22c-6.27-1.07-12.52-2.16-18.79-3.25s-12.51-2.18-18.77-3.25l-18.79-3.21-9-1.54-4.56-.82-2.19-.37-1.1-.2a5.18 5.18 0 01-1-.28q-.18-9.53-.33-19t-.26-19.14c-.1-6.37-.22-12.73-.32-19.09s-.2-12.68-.31-19L.98 96.69Q.82 87.15.64 77.62t-.3-19q-.15-9.57-.28-19.1c0-3.1-.07-6.19-.06-9.28v-1.22a1.61 1.61 0 010-.22c0-.16 0-.13.21-.19l.6-.22 2.14-.78 4.4-1.6q9-3.27 17.94-6.51l18-6.53 18-6.52 9-3.26 4.44-1.61 2.28-.83a13.13 13.13 0 012.13-.68 8.59 8.59 0 012.15 0l2.4.24 4.75.44 9.5.93q9.51.93 19 1.89l19 1.89q9.47.93 18.94 1.83c6.34.61 12.68 1.26 19 1.89s12.69 1.26 19 1.87 12.53 1.2 18.79 1.83l4.57.46 2.36.24 1.15.17h.57zm-3.41 4.24a2.69 2.69 0 000-.63c0-.18-.15-.35-.21-.53-1.7-.2-3.4-.41-5.1-.58-7.08-.69-14.16-1.36-21.24-2.06l-2.29-.23-8-.79-18.39-1.81-9.23-.9-4.75-.47-3.43-.33-17.99-1.74-1.45-.17-9.18-.9-10.63-1-2.66-.27-14.22-1.4-2.2-.22-2.19-.21c-.79-.08-1.6-.22-2.4-.27h-.41a7.79 7.79 0 00-1.28 0h-.39a5.36 5.36 0 00-.54.14l-.38.12c-.72.24-1.42.53-2.13.78l-2.47.98-10.12 3.67-20.16 7.31-20.22 7.34-5 1.82-5 1.83-3.42 1.28-1.69.61-2.54.93c-.36.13-.74.25-1.09.4h-.13l-.23.12-.33.2-.32.2h-.05v.7a.92.92 0 000 .16v.49c0 4.44.14 8.87.22 13.31a.34.34 0 000 .1l-.01 5.78.19 11.47v1.85c0 1.73 0 3.47.08 5.21q.12 6.6.22 13.21c.06 3.44.11 6.88.17 10.31 0 1 0 2.09.05 3.13v1q.09 4.62.16 9.26.22 8.56.32 17.2.12 7.63.25 15.28c0 1.46.05 2.92.07 4.38l.18 10.88c0 1 0 2 .05 3.08v.74l.06 3.79c.09 5.39.13 10.79.18 16.19v9.43a4.79 4.79 0 00.06.93v.09c0 .01 0 0 .09 0a2.47 2.47 0 00.6.13h.46l.71.14c1 .19 2 .35 3 .52l6.38 1.1 14.99 2.68 15.11 2.6 4.92.85 10.19 1.76 1.79.3 10.58 1.81 2.67.46 3.65.63c3.82.64 7.62 1.3 11.43 1.95l15.08 2.64 15 2.6 7 1.2 8.13 1.41 5.48.94.59.09 1.52.26c1.85.32 3.72.58 5.58.85l1.37.19a3 3 0 00.43.07h.06a2.75 2.75 0 00.38-.2 4.53 4.53 0 00.46-.3l.12-.09.55-.42.51-.4 1.14-.88 1-.75 2.65-2.05 13.15-10.13 1.46-1.13.49-.37 14.15-10.89 3.64-2.81 8.89-6.84 3.71-2.85 5.72-4.39c.77-.6 1.56-1.18 2.34-1.78a14.37 14.37 0 001.42-1.13 1.81 1.81 0 00.29-.34 1.87 1.87 0 00.28-.76 14 14 0 000-1.95v-7.28l.09-5.42v-1.32q.09-5.73.17-11.48l.06-3.92c0-1.86.05-3.72.07-5.58.11-7.48.2-15 .31-22.46s.21-14.94.31-22.41.21-15 .31-22.42.21-14.95.32-22.43l.06-4.65q.06-4.42.11-8.86v-7.65z" fill="#272324"/><path class="b" d="M216.88 17.39a2.69 2.69 0 010 .63v-.22a2.56 2.56 0 00-.24-.94c.11.18.2.35.24.53z"/><path class="b" d="M216.91 17.8v10.11l-.16 11.21q-.17 11.22-.32 22.43t-.31 22.42q-.15 11.2-.31 22.41c-.11 7.49-.2 15-.31 22.46 0 1.86-.05 3.72-.07 5.58l-.06 3.92q-.08 5.74-.17 11.48 0 3.38-.11 6.74v8.58a2.66 2.66 0 01-.31 1.41 2.25 2.25 0 01-.33.37l-.14.13c-.42.34-.85.67-1.28 1l-.65.48-1.69 1.3-.54.41-5.18 4-3.71 2.85-8.89 6.84-3.8 2.82-14.62 11.22-1.46 1.13-13.15 10.13-2.65 2.05-1 .75-1.65 1.28-.55.42-.12.09a8.85 8.85 0 01-.84.5v-46.57c.07-3.81.16-7.63.2-11.45q.06-5.09.06-10.17v-40.61c0-3 .1-6.09.14-9.14a.76.76 0 000-.15V47.26c0-.05 0-.07.12-.11a5.11 5.11 0 00.48-.22l.6-.29 1.1-.53 2.5-1.19 2.57-1.17 9.53-4.52 7.67-3.64 13.3-6.31q3.19-1.5 6.39-3l1.66-.79 2.45-1.16 3.67-1.75 2.07-1 4.87-2.33 2.43-1.16.9-.42.26-.14.13-.06.52-.31c.16-.11.33-.21.5-.31a2.56 2.56 0 01.26.95zm-8.45 30.72v-2l-17.35 8.23-17.28 8.2-9.76 4.63v22.84c0 3.81 0 7.61-.05 11.42s0 7.61 0 11.42l-.06 11.42-.06 11.43q0 5.71-.05 11.43v37.21c1.75-1.24 3.42-2.58 5.12-3.89l5.7-4.39 11.4-8.78 11.41-8.77 5.7-4.38 2.85-2.19a5.63 5.63 0 001.17-1 2 2 0 00.32-1.11c.06-2.37 0-4.75.06-7.13s0-4.58 0-6.87v-1.76l-12.31 8.88-12.31 8.88-7 5c0-5.46.09-10.92.13-16.38q0-4.22.05-8.43v-4.22a5.16 5.16 0 01.48-3.06 3.35 3.35 0 01.92-.88c.54-.37 1.11-.7 1.66-1l3.6-2.28 7.09-4.5 14.18-9c.86-.54 1.89-1 2.07-2.14a13.21 13.21 0 000-1.78c0-.68 0-1.36.06-2 .09-2.69 0-5.39 0-8.09v-2l-11.69 7-11.59 6.9-6.54 3.9V81.01a4.22 4.22 0 010-.94c0-.14 0-.11.15-.18a1.24 1.24 0 01.2-.1l.49-.27 1.79-.93 14.29-7.44 14.1-7.4.4-.21.24-.13c.14-.07.12 0 .15-.18a1.61 1.61 0 000-.44v-2.54c0-1.3.05-2.6.07-3.9.11-2.6.15-5.2.2-7.83zm8.44-25.77v-1.28.82z"/><path class="c" d="M216.67 16.86c-.17.1-.34.2-.5.31l-.52.31-.13.06-.26.14-.9.42-2.43 1.16-4.87 2.33-2.07 1-6.12 2.91-1.66.79q-3.19 1.53-6.39 3l-13.3 6.31-7.67 3.64-9.55 4.51-2.45 1.16-2.5 1.19-1.1.53-.6.29-.15.07-.3.14a.58.58 0 01-.18 0h-.22l-.44-.07-.45-.06h-.1l-1.43-.22-2.5-.31h-.16c-3-.37-6-.65-9-.92h-.33l-1.34-.12c-.45 0-.89-.08-1.34-.12l-.59-.07-.74-.08c-1.45-.17-2.89-.36-4.34-.54l-1-.11-1-.12h-.12l-.79-.08-.69-.06c-2.63-.24-5.25-.46-7.87-.74-2.31-.26-4.61-.56-6.92-.83h-.52l-.84-.1c-1-.11-2-.2-2.93-.28h-.38q-3.57-.3-7.12-.75c-1.25-.16-2.5-.33-3.76-.44s-2.54-.2-3.81-.34l-2.52-.27h-.16c-2-.25-4-.51-6-.71h-.24c-1.4-.15-2.79-.25-4.19-.36l-1.35-.13-1-.1-.87-.1c-2.16-.35-4.21-.71-6.21-.91l-.85-.09h-.15l-5.37-.56-1.34-.14-1.82-.19-3.54-.34-1.34-.12-2.59-.29-1.34-.15-1.34-.16-.54-.06-2.39-.28c-1.25-.15-2.49-.27-3.74-.39l-1-.09-1.72-.16c-2.89-.24-5.75-.59-8.63-.94l-2.1-.26c-.68-.08-1.36-.16-2.05-.22-1.13-.12-2.25-.23-3.38-.32h-.61l-1.34-.12h-.14c-1.49-.15-3-.32-4.46-.5l-.94-.12-.93-.12-2.15-.32-4.44-.45-.95-.05-2.55-.26-1.33-.13h-.09c-.23 0-.47-.06-.71-.07a1 1 0 00-.38 0l.32-.2.33-.2.19-.14.11-.05h.06c.3-.13.62-.23.94-.34l.15-.06 2.54-.93 1.69-.62 8.4-3.06 5-1.82 20.22-7.34 20.18-7.36L73.75 5.5l2.53-.92.9-.32c.41-.15.81-.32 1.23-.46l.34-.12a5.36 5.36 0 01.54-.14h.39a7.79 7.79 0 011.28 0h.41c.73 0 1.46.17 2.18.25l.2-.04 2.17.22c5.47.56 11 1.08 16.42 1.61l2.66.27 10.63 1 10.63 1 17.94 1.77 8.18.8 9.23.9 7.39.73 19 1.87 2.29.23c2.67.26 5.34.53 8 .78 6.16.67 12.28 1.23 18.38 1.93zm-31 1.55c0-.07 0-.26-.1-.3a1 1 0 00-.34 0l-.72-.08-1.45-.14-2.85-.28-5.63-.58-2.83-.28a3.49 3.49 0 00-1.25.07 9 9 0 00-1.21.49l-5.18 2.34-10.36 4.66q-5.19 2.37-10.4 4.71l-5.15 2.32a3.47 3.47 0 01-1.25.37 8.75 8.75 0 01-1.35-.09c-.94-.09-1.89-.18-2.83-.29-3.77-.4-7.53-.84-11.3-1.23s-7.54-.64-11.28-1.17l-.65-.09h-.32c-.03 0 0-.12 0-.14v-.16a1.14 1.14 0 01.3-.13l.36-.15.65-.27 2.56-1.08 5.11-2.16 10.31-4.34 10.38-4.35 2.58-1.09c-.68-.11-1.35-.26-2-.32-.94-.09-1.89-.15-2.83-.21s-1.84-.14-2.76-.24-1.79-.28-2.69-.37a13.63 13.63 0 00-5 .5 48.7 48.7 0 00-5.1 2c-3.53 1.46-7.06 2.89-10.6 4.32l-10.57 4.24a43.64 43.64 0 01-5 1.93 8.46 8.46 0 01-2.5.28c-.91 0-1.82-.24-2.73-.35-1.86-.22-3.73-.36-5.6-.53s-3.79-.39-5.68-.59L72.7 25l-2.8-.3-.66-.07h-.33c-.18 0-.17-.06-.19-.24s0-.14.13-.19l.32-.12.58-.33 10.8-4 10.82-4.09 10.76-4.07 2.63-1a15.9 15.9 0 00-3.28-.52l-3.51-.36c-2.31-.23-4.63-.49-6.94-.71a7.2 7.2 0 00-3.18.52l-3.26 1.19-6.57 2.39-13.27 4.76-13.18 4.79-6.66 2.41c-2.19.8-4.4 1.54-6.57 2.4l-1.59.63c4.9.83 9.87 1.23 14.81 1.73s10 1.07 15.06 1.61 10 1 15 1.6 10 1 15 1.61 10 1 15 1.58 10 1.07 15 1.59c2.51.25 5 .54 7.53.82l3.76.42 1.82.19a5.43 5.43 0 001.66 0 7.74 7.74 0 001.59-.63l1.67-.79 3.45-1.62 6.88-3.25 13.77-6.48c4.55-2.16 9.11-4.29 13.65-6.47z"/><path class="c" d="M216.65 16.87c-.17.1-.34.2-.5.31.16-.11.33-.21.5-.31zm-1.41.82l.26-.14z"/><path class="b" d="M215.16 149.82v1.32l-.09 5.42q.04-3.36.09-6.74zm-.2 12.52v1.5-.16c-.01-.45 0-.93 0-1.34zm-.67 4.58a2.25 2.25 0 00.33-.37 1.81 1.81 0 01-.29.34zm-.14.13l.14-.13a14.37 14.37 0 01-1.42 1.13c.43-.3.88-.66 1.28-1z"/><path class="c" d="M211.57 16.28c1.7.17 3.4.38 5.1.58-6.1-.7-12.22-1.26-18.33-1.86-2.67-.25-5.34-.52-8-.78 7.07.7 14.15 1.37 21.23 2.06z"/><path class="d" d="M208.5 46.51v2c-.05 2.63-.09 5.27-.14 7.9 0 1.3 0 2.6-.07 3.9v2.54a1.61 1.61 0 010 .44c0 .14 0 .11-.15.18l-.24.13-.4.21-14.28 7.34-14.29 7.44-1.79.93-.49.27a1.24 1.24 0 00-.2.1c-.14.07-.12 0-.15.18a4.22 4.22 0 000 .94v28.08l6.54-3.9 11.59-6.9 11.69-7v2c0 2.7.06 5.4 0 8.09 0 .69 0 1.37-.06 2a13.21 13.21 0 010 1.78c-.18 1.11-1.21 1.6-2.07 2.14l-14.18 9-7.09 4.5-3.6 2.28c-.55.35-1.12.68-1.66 1a3.35 3.35 0 00-.92.88 5.16 5.16 0 00-.48 3.06v4.22q0 4.22-.05 8.43c0 5.46-.13 10.92-.13 16.38l7-5 12.31-8.88 12.31-8.88v8.63c0 2.29 0 4.76-.06 7.13a2 2 0 01-.32 1.11 5.63 5.63 0 01-1.17 1l-2.85 2.19-5.7 4.38-11.41 8.77-11.4 8.78-5.7 4.39c-1.7 1.31-3.37 2.65-5.12 3.89v-37.17c0-3.81 0-7.62.05-11.43l.06-11.43.06-11.42v-11.42c0-3.81 0-7.61.05-11.42V67.43l9.76-4.63 17.36-8.05z"/><path class="b" d="M201.1 177.07l-8.89 6.84z"/><path class="c" d="M190.8 29.31q3.19-1.5 6.39-3-3.19 1.5-6.39 3z"/><path class="b" d="M188.57 186.75l-14.13 10.88-.49.37z"/><path class="d" d="M185.56 18.11c.05 0 .08.23.1.3L182.41 20c-4.54 2.18-9.1 4.31-13.65 6.47l-13.66 6.47-6.88 3.25-3.47 1.62-1.67.79a7.74 7.74 0 01-1.59.63 5.43 5.43 0 01-1.66 0l-1.82-.19-3.76-.42c-2.51-.28-5-.57-7.53-.82q-7.5-.78-15-1.59c-5-.55-10-1-15-1.58s-10-1.07-15-1.61-10-1.06-15-1.6-10-1.11-15.06-1.61-9.91-.9-14.81-1.73l1.56-.63c2.17-.86 4.38-1.6 6.57-2.4l6.66-2.41 13.11-4.78 13.24-4.79 6.57-2.39 3.29-1.19a7.2 7.2 0 013.18-.52c2.31.22 4.63.48 6.94.71l3.51.36a15.9 15.9 0 013.28.52l-2.63 1-10.76 4.07-10.82 4.12-10.8 4-.68.26-.32.12c-.13 0-.15 0-.13.19s0 .22.19.24h.33l.66.07 2.8.3 5.71.63c1.89.2 3.79.41 5.68.59s3.74.31 5.6.53c.91.11 1.82.31 2.73.35a8.46 8.46 0 002.5-.28 43.64 43.64 0 005-1.93l10.57-4.24c3.54-1.43 7.07-2.86 10.6-4.32a48.7 48.7 0 015.1-2 13.63 13.63 0 015-.5c.9.09 1.79.27 2.69.37s1.84.17 2.76.24 1.89.12 2.83.21c.69.06 1.36.21 2 .32l-2.58 1.09-10.38 4.35-10.21 4.41-5.08 2.13-2.56 1.08-.65.27-.36.15a1.14 1.14 0 00-.3.13v.3c0 .02.26 0 .32 0l.65.09c3.74.53 7.52.78 11.28 1.17s7.53.83 11.3 1.23c.94.11 1.89.2 2.83.29a8.75 8.75 0 001.35.09 3.47 3.47 0 001.25-.37l5.15-2.32q5.2-2.34 10.4-4.71l10.31-4.67 5.18-2.34a9 9 0 011.21-.49 3.49 3.49 0 011.27-.03l2.84.26 5.63.58 2.85.28 1.45.14.72.08a1 1 0 01.32.02z"/><path class="b" d="M155.75 212.03l-1.14.88-.51.4z"/><path class="c" d="M153.5 47.02l.15-.07a5.11 5.11 0 01-.48.22z"/><path class="e" d="M153.05 47.28v48.94a.76.76 0 010 .15v1.8c0 2.45-.08 4.89-.11 7.34v48.24c0 4.67-.15 9.35-.23 14v17.57q0 7.13.05 14.25v14.79h-.06l-.43-.07-1.37-.19c-2.37-.35-4.74-.71-7.1-1.11l-6.07-1-8.13-1.41-4.54-.78-17.47-3-15.08-2.6-3.87-.66c-2.52-.43-5-.87-7.56-1.29l-3.65-.63-2.67-.46-4.3-.73c-2.09-.36-4.19-.71-6.28-1.08l-1.79-.3-10.19-1.76-4.92-.85-15.35-2.69-15-2.59-6.38-1.1-1.1-.19-1.87-.33-.71-.14h-.21l-.34-.07h-.35a.64.64 0 010-.09 2.62 2.62 0 000-.28v-11.03q0-3.8-.07-7.61c0-3.82-.11-7.63-.17-11.45v-.74q-.11-7-.23-14c0-1.46 0-2.92-.07-4.38q-.13-7.63-.25-15.28t-.25-15.31c-.06-3.72-.13-7.45-.19-11.17v-1q-.42-4.24-.47-8.35l-.09-5.15c0-1.67 0-3.33-.08-5q-.1-6.7-.22-13.42v-1.85l-.22-11.47-.06-3.82v-1.92a.34.34 0 010-.1l-.25-12.63v-1.05a1.55 1.55 0 010-.22v-.38a1.23 1.23 0 010-.27 1.71 1.71 0 01.45 0l.71.07h.09l1.33.13 2.63.19.95.1c2.18.22 4.37.44 6.55.7l.93.12.94.12 1.25.16c1.07.13 2.14.24 3.21.34h.14l1.34.12h.05c1.31.12 2.63.23 3.94.37s2.77.3 4.15.48c2.51.32 5 .63 7.53.85l2.82.25 1 .09c2 .2 4.08.44 6.13.67l.54.06 1.34.16 1.34.15 1.88.2.75.07 1.34.13 3.54.34c.62.06 1.25.12 1.87.2l1.29.13c1.79.2 3.58.38 5.37.56h.1c1.31.14 2.62.29 3.93.46 1 .13 2 .27 3.08.38l.87.1.44.05h.88l1 .09 4.19.36c.47 0 1 .1 1.42.16 1.6.2 3.21.39 4.81.57h.16c1.5.18 3 .35 4.51.47 3.58.28 7.13.84 10.71 1.16l2 .17h.38c1.26.1 2.52.23 3.77.38h.52c1.36.16 2.71.34 4.07.51 1 .12 1.9.23 2.85.32 1.3.15 2.59.29 3.89.4 1.56.12 3.12.25 4.67.4l.79.08h.12l1 .12 1 .11c1.45.19 2.89.38 4.34.54l.74.08.59.07c.45 0 .89.09 1.34.12h.33l1 .08h.33c3 .28 6 .57 9 .92h.16c1.34.17 2.69.35 4 .55a7.76 7.76 0 001.06.16h.11zm-22.82 121.36a1.82 1.82 0 000-.33c0-.11 0-.07-.06-.13a.78.78 0 00-.22 0l-.78-.13-1.49-.24-3.05-.49-12.19-2-12.18-2-12.14-2-12.19-2-12.15-2-6.1-1-1.55-.25a.93.93 0 01-.34 0c-.08-.06 0-.22-.06-.34v-3.87q-.06-6.14-.14-12.26t-.13-12.22v-3l13.82 2 13.79 2 13.72 2 13.71 1.95 13.78 2 1.72.25v-16.13a1.22 1.22 0 000-.33c-.05-.1-.21-.08-.34-.1l-5.68-.76-11.42-1.51-11.35-1.52-11.35-1.48-11.36-1.51-11.35-1.56-5.69-.76-1.44-.17a3.73 3.73 0 01-.67-.09c-.1 0-.07 0-.11-.07a.49.49 0 010-.17v-3.22q-.06-5.66-.13-11.31l-.16-11.37v-2.8l14.71 1.72 14.62 1.7 14.6 1.7 14.65 1.71 14.66 1.71 1.78.21V69.83c0-.21 0-.17-.22-.19h-.39l-1.51-.16-3-.33-12-1.28-12-1.27-12.1-1.32-12-1.28-12-1.25-12-1.3-11.92-1.27-12-1.27-3-.32c0 6.87.11 13.73.22 20.59s.26 14 .37 21 .22 14 .34 21 .24 14 .35 21.06.17 14 .25 21c0 1.7.06 3.38.17 5.08 0 .21 0 .43.05.65a1.13 1.13 0 000 .32v.11h.22l1.33.23 2.54.44 10.4 1.79 20.8 3.57 20.68 3.56 20.8 3.58 20.76 3.57 5 .87v-18.37z"/><path class="b" d="M153.04 47.4v-.11.17zM153 75v6.68c0-2.23.01-4.45 0-6.68zm0-19.71v3.86c-.01-1.29 0-2.57 0-3.86z"/><path class="c" d="M152.99 47.21h-.05a7.76 7.76 0 01-1.06-.16l.45.06.44.07z"/><path class="b" d="M152.84 98.18v-1.8c0 3.05-.1 6.09-.14 9.14.05-2.45.1-4.89.14-7.34zm-.09 40.19v-4.11 4.11zm-.06-25.62v8.74c-.01-2.95-.01-5.87 0-8.74zm-.13 101.57zm-.12-30.07v-7.43c-.02 2.48-.01 4.93 0 7.43z"/><path class="c" d="M152.4 10.49l-8.18-.8 3.43.33z"/><path class="e" d="M150.66 214.08c-1.86-.27-3.73-.53-5.58-.85l-1.52-.26c2.36.4 4.73.78 7.1 1.11z"/><path class="c" d="M138.63 45.57c3 .27 6 .55 9 .92-2.99-.35-5.99-.64-9-.92z"/><path class="d" d="M130.23 168.31a1.82 1.82 0 010 .33v18.38l-5-.87-20.76-3.57-20.8-3.58-20.72-3.56-20.8-3.57-10.4-1.79-2.54-.44-1.33-.23h-.22v-.11a1.13 1.13 0 010-.32c0-.22 0-.44-.05-.65-.11-1.7-.15-3.38-.17-5.08-.08-7-.14-14-.25-21s-.23-14-.35-21.06-.22-14-.34-21-.27-14-.37-21-.22-13.72-.22-20.59l3 .32 12 1.27 11.84 1.26 12 1.3 12 1.27 12 1.28 12 1.28 12 1.27 12 1.28 3 .33 1.51.16h.39c.18 0 .22 0 .22.19v18.66l-1.78-.21-14.59-1.71-14.65-1.71-14.6-1.7-14.62-1.7-14.71-1.69v2.8l.12 11.35q.07 5.66.13 11.31v3.22a.49.49 0 000 .17c0 .09 0 0 .11.07a3.73 3.73 0 00.67.09l1.44.19 5.69.76 11.35 1.52 11.43 1.52 11.35 1.52 11.35 1.48 11.35 1.51 5.68.76c.13 0 .29 0 .34.1a1.22 1.22 0 010 .33v16.07l-1.72-.25-13.78-2-13.68-1.91-13.72-2-13.79-2-13.82-2v3q.06 6.11.13 12.22t.14 12.26v3.87c0 .12 0 .28.06.34a.93.93 0 00.34 0l1.55.25 6.1 1 12.15 2 12.19 2 12.14 2 12.18 2 12.19 2 3.05.49 1.49.24.78.13a.78.78 0 01.22 0c.12.08.08.04.1.15z"/><path class="e" d="M129.36 210.53l-7-1.2-15-2.6 17.47 3z"/><path class="c" d="M128.96 44.5l-1-.12zm-10.54-1.02c-1-.09-1.9-.2-2.85-.32-1.36-.17-2.71-.35-4.07-.51 2.31.27 4.61.57 6.92.83zm-11.59-1.3l-2-.17c-3.58-.32-7.13-.88-10.71-1.16-1.51-.12-3-.29-4.51-.47l2.52.27c1.27.14 2.54.23 3.81.34s2.51.28 3.76.44q3.57.45 7.13.75z"/><path class="e" d="M92.27 204.13c-3.81-.65-7.61-1.31-11.43-1.95 2.52.42 5 .86 7.56 1.29z"/><path class="c" d="M83.75 3.75h-.2c-.72-.08-1.45-.2-2.18-.25.8.02 1.61.16 2.38.25zm-4.71 35.52c1.4.11 2.79.21 4.19.36zm.45-35.76h-.2zm-.45 35.76l-1-.09h-.36zM78.37 3.8c-.42.14-.82.31-1.23.46l-.9.32c.71-.25 1.41-.54 2.13-.78z"/><path class="e" d="M70.22 200.36l4.3.73-10.58-1.81c2.09.37 4.19.72 6.28 1.08z"/><path class="c" d="M75.86 38.94c-1-.11-2.06-.25-3.08-.38-1.31-.17-2.62-.32-3.93-.46l.85.09c2.05.2 4.1.56 6.16.75zm-28.8-3.13l2.39.28c-2.05-.23-4.09-.47-6.13-.67 1.25.12 2.49.24 3.74.39zm-19.2-2.06c-1.31-.14-2.63-.25-3.94-.37h.56c1.13.14 2.27.25 3.38.37zm-5.47-.51c-1.07-.1-2.14-.21-3.21-.34l-1.25-.15c1.48.17 2.97.34 4.46.49zm-4.16-7.6l-8.4 3.11 3.38-1.23z"/><path class="e" d="M5.97 189.22h.09c-.06.03-.08.02-.09 0zm-.03-.14a4.79 4.79 0 01-.06-.93v.6a2.62 2.62 0 01.06.33zm-.26-8.19v-2.12c-.01.7-.01 1.41 0 2.12z"/><path class="c" d="M5.6 30.24l-.15.06c-.32.11-.64.21-.94.34.35-.15.73-.27 1.09-.4z"/><path class="e" d="M5.4 158.01c0-1 0-2-.05-3.08l-.18-10.88q.12 6.97.23 13.96z"/><path class="c" d="M4.45 30.66l-.11.09z"/><path class="e" d="M4.4 96.93c0-1 0-2.09-.05-3.13-.06-3.43-.11-6.87-.17-10.31l.09 5.15q.06 4.11.13 8.29z"/><path class="c" d="M4.34 30.75l-.23.12zm-.23.08l-.33.2zm-.27.4a1.71 1.71 0 00-.45 0 1 1 0 01.45 0z"/><path class="e" d="M3.35 33.28l.21 12.64c-.08-4.44-.2-8.87-.22-13.31v-.38c-.01.35 0 .7.01 1.05zm.1-2.05H3.4zm-.05.03a1.23 1.23 0 000 .27v.17c0 .06-.05-.39 0-.44z"/></svg>